<mxfile host="app.diagrams.net" agent="Mozilla/5.0 (Windows NT 10.0; Win64; x64) AppleWebKit/537.36 (KHTML, like Gecko) Chrome/131.0.0.0 Safari/537.36" version="24.8.9">
  <diagram id="C5RBs43oDa-KdzZeNtuy" name="Page-1">
    <mxGraphModel dx="1050" dy="522" grid="1" gridSize="10" guides="1" tooltips="1" connect="1" arrows="1" fold="1" page="1" pageScale="1" pageWidth="827" pageHeight="1169" math="0" shadow="0">
      <root>
        <mxCell id="WIyWlLk6GJQsqaUBKTNV-0" />
        <mxCell id="WIyWlLk6GJQsqaUBKTNV-1" parent="WIyWlLk6GJQsqaUBKTNV-0" />
        <mxCell id="-azY2W3yGZLZTdUkkEGY-0" value="" style="whiteSpace=wrap;html=1;aspect=fixed;" parent="WIyWlLk6GJQsqaUBKTNV-1" vertex="1">
          <mxGeometry x="250" y="20" width="700" height="700" as="geometry" />
        </mxCell>
        <mxCell id="QETnrpiUQnyJiMyGGkn6-22" value="" style="whiteSpace=wrap;html=1;aspect=fixed;" parent="WIyWlLk6GJQsqaUBKTNV-1" vertex="1">
          <mxGeometry x="320" y="3710" width="830" height="830" as="geometry" />
        </mxCell>
        <mxCell id="-azY2W3yGZLZTdUkkEGY-1" value="Cas d&#39;utilisation du secrétaire&amp;nbsp;" style="rounded=0;whiteSpace=wrap;html=1;" parent="WIyWlLk6GJQsqaUBKTNV-1" vertex="1">
          <mxGeometry x="450" y="20" width="240" height="30" as="geometry" />
        </mxCell>
        <mxCell id="-azY2W3yGZLZTdUkkEGY-2" value="Secrétaire&amp;nbsp;" style="shape=umlActor;verticalLabelPosition=bottom;verticalAlign=top;html=1;outlineConnect=0;fillColor=#ffe6cc;strokeColor=#d79b00;strokeWidth=3;" parent="WIyWlLk6GJQsqaUBKTNV-1" vertex="1">
          <mxGeometry x="60" y="240" width="50" height="240" as="geometry" />
        </mxCell>
        <mxCell id="-azY2W3yGZLZTdUkkEGY-4" value="Gestion de Patient" style="ellipse;whiteSpace=wrap;html=1;fillColor=#ffe6cc;strokeColor=#d79b00;fontStyle=1" parent="WIyWlLk6GJQsqaUBKTNV-1" vertex="1">
          <mxGeometry x="271" y="60" width="139" height="60" as="geometry" />
        </mxCell>
        <mxCell id="-azY2W3yGZLZTdUkkEGY-6" value="extends" style="endArrow=open;endSize=12;dashed=1;html=1;rounded=0;exitX=0.5;exitY=1;exitDx=0;exitDy=0;entryX=0;entryY=0.5;entryDx=0;entryDy=0;" parent="WIyWlLk6GJQsqaUBKTNV-1" source="-azY2W3yGZLZTdUkkEGY-7" target="-azY2W3yGZLZTdUkkEGY-30" edge="1">
          <mxGeometry x="0.4077" y="-6" width="160" relative="1" as="geometry">
            <mxPoint x="310" y="280" as="sourcePoint" />
            <mxPoint x="310" y="170" as="targetPoint" />
            <Array as="points" />
            <mxPoint y="-1" as="offset" />
          </mxGeometry>
        </mxCell>
        <mxCell id="-azY2W3yGZLZTdUkkEGY-7" value="Ajouter Patient" style="ellipse;whiteSpace=wrap;html=1;fillColor=#ffe6cc;strokeColor=#d79b00;" parent="WIyWlLk6GJQsqaUBKTNV-1" vertex="1">
          <mxGeometry x="304.29" y="250" width="98" height="50" as="geometry" />
        </mxCell>
        <mxCell id="-azY2W3yGZLZTdUkkEGY-8" value="" style="endArrow=none;html=1;rounded=0;exitX=1;exitY=0.3333333333333333;exitDx=0;exitDy=0;exitPerimeter=0;entryX=0;entryY=0.5;entryDx=0;entryDy=0;" parent="WIyWlLk6GJQsqaUBKTNV-1" source="-azY2W3yGZLZTdUkkEGY-2" target="-azY2W3yGZLZTdUkkEGY-4" edge="1">
          <mxGeometry width="50" height="50" relative="1" as="geometry">
            <mxPoint x="200" y="390" as="sourcePoint" />
            <mxPoint x="250" y="340" as="targetPoint" />
          </mxGeometry>
        </mxCell>
        <mxCell id="-azY2W3yGZLZTdUkkEGY-9" value="Modifier Patient" style="ellipse;whiteSpace=wrap;html=1;fillColor=#ffe6cc;strokeColor=#d79b00;" parent="WIyWlLk6GJQsqaUBKTNV-1" vertex="1">
          <mxGeometry x="507.12" y="280" width="110.78" height="50" as="geometry" />
        </mxCell>
        <mxCell id="-azY2W3yGZLZTdUkkEGY-10" value="extends" style="endArrow=open;endSize=12;dashed=1;html=1;rounded=0;exitX=0.5;exitY=0;exitDx=0;exitDy=0;entryX=0.5;entryY=1;entryDx=0;entryDy=0;" parent="WIyWlLk6GJQsqaUBKTNV-1" source="-azY2W3yGZLZTdUkkEGY-9" target="-azY2W3yGZLZTdUkkEGY-30" edge="1">
          <mxGeometry width="160" relative="1" as="geometry">
            <mxPoint x="429" y="280" as="sourcePoint" />
            <mxPoint x="444" y="330" as="targetPoint" />
            <Array as="points" />
          </mxGeometry>
        </mxCell>
        <mxCell id="-azY2W3yGZLZTdUkkEGY-12" value="Archiver Patient" style="ellipse;whiteSpace=wrap;html=1;fillColor=#ffe6cc;strokeColor=#d79b00;" parent="WIyWlLk6GJQsqaUBKTNV-1" vertex="1">
          <mxGeometry x="690" y="150" width="110" height="40" as="geometry" />
        </mxCell>
        <mxCell id="-azY2W3yGZLZTdUkkEGY-13" value="extends" style="endArrow=open;endSize=12;dashed=1;html=1;rounded=0;exitX=0;exitY=0.5;exitDx=0;exitDy=0;entryX=0.935;entryY=0.66;entryDx=0;entryDy=0;entryPerimeter=0;" parent="WIyWlLk6GJQsqaUBKTNV-1" source="-azY2W3yGZLZTdUkkEGY-12" target="-azY2W3yGZLZTdUkkEGY-30" edge="1">
          <mxGeometry width="160" relative="1" as="geometry">
            <mxPoint x="492.5" y="310" as="sourcePoint" />
            <mxPoint x="407.5" y="362" as="targetPoint" />
            <Array as="points" />
          </mxGeometry>
        </mxCell>
        <mxCell id="-azY2W3yGZLZTdUkkEGY-16" value="Gestion de RV" style="ellipse;whiteSpace=wrap;html=1;fillColor=#fff2cc;strokeColor=#d6b656;fontStyle=1" parent="WIyWlLk6GJQsqaUBKTNV-1" vertex="1">
          <mxGeometry x="258" y="470" width="132" height="60" as="geometry" />
        </mxCell>
        <mxCell id="-azY2W3yGZLZTdUkkEGY-17" value="Archiver rendez-vous&amp;nbsp;" style="ellipse;whiteSpace=wrap;html=1;fillColor=#ffe6cc;strokeColor=#d79b00;" parent="WIyWlLk6GJQsqaUBKTNV-1" vertex="1">
          <mxGeometry x="767" y="620" width="81" height="40" as="geometry" />
        </mxCell>
        <mxCell id="-azY2W3yGZLZTdUkkEGY-18" value="extends" style="endArrow=open;endSize=12;dashed=1;html=1;rounded=0;exitX=0.324;exitY=0.94;exitDx=0;exitDy=0;exitPerimeter=0;fillColor=#dae8fc;strokeColor=#6c8ebf;" parent="WIyWlLk6GJQsqaUBKTNV-1" source="-azY2W3yGZLZTdUkkEGY-17" target="-azY2W3yGZLZTdUkkEGY-27" edge="1">
          <mxGeometry width="160" relative="1" as="geometry">
            <mxPoint x="502.5" y="470" as="sourcePoint" />
            <mxPoint x="417.5" y="522" as="targetPoint" />
            <Array as="points" />
          </mxGeometry>
        </mxCell>
        <mxCell id="-azY2W3yGZLZTdUkkEGY-19" value="extends" style="endArrow=open;endSize=12;dashed=1;html=1;rounded=0;fillColor=#dae8fc;strokeColor=#6c8ebf;" parent="WIyWlLk6GJQsqaUBKTNV-1" source="-azY2W3yGZLZTdUkkEGY-22" target="-azY2W3yGZLZTdUkkEGY-27" edge="1">
          <mxGeometry width="160" relative="1" as="geometry">
            <mxPoint x="371" y="430" as="sourcePoint" />
            <mxPoint x="454" y="490" as="targetPoint" />
            <Array as="points" />
          </mxGeometry>
        </mxCell>
        <mxCell id="-azY2W3yGZLZTdUkkEGY-20" value="extends" style="endArrow=open;endSize=12;dashed=1;html=1;rounded=0;entryX=1;entryY=0;entryDx=0;entryDy=0;fillColor=#dae8fc;strokeColor=#6c8ebf;" parent="WIyWlLk6GJQsqaUBKTNV-1" source="-azY2W3yGZLZTdUkkEGY-21" target="-azY2W3yGZLZTdUkkEGY-27" edge="1">
          <mxGeometry width="160" relative="1" as="geometry">
            <mxPoint x="320" y="440" as="sourcePoint" />
            <mxPoint x="340" y="520" as="targetPoint" />
            <Array as="points" />
          </mxGeometry>
        </mxCell>
        <mxCell id="-azY2W3yGZLZTdUkkEGY-22" value="Modifier RV" style="ellipse;whiteSpace=wrap;html=1;fillColor=#ffe6cc;strokeColor=#d79b00;" parent="WIyWlLk6GJQsqaUBKTNV-1" vertex="1">
          <mxGeometry x="789" y="480" width="81" height="40" as="geometry" />
        </mxCell>
        <mxCell id="-azY2W3yGZLZTdUkkEGY-26" value="" style="endArrow=open;endSize=12;dashed=1;html=1;rounded=0;exitX=1;exitY=0.5;exitDx=0;exitDy=0;entryX=0.764;entryY=0.063;entryDx=0;entryDy=0;entryPerimeter=0;strokeWidth=2;fillColor=#ffe6cc;strokeColor=#d79b00;" parent="WIyWlLk6GJQsqaUBKTNV-1" source="-azY2W3yGZLZTdUkkEGY-4" target="-azY2W3yGZLZTdUkkEGY-32" edge="1">
          <mxGeometry width="160" relative="1" as="geometry">
            <mxPoint x="320" y="440" as="sourcePoint" />
            <mxPoint x="348" y="535" as="targetPoint" />
            <Array as="points">
              <mxPoint x="870" y="90" />
            </Array>
          </mxGeometry>
        </mxCell>
        <mxCell id="-azY2W3yGZLZTdUkkEGY-33" value="include" style="edgeLabel;html=1;align=center;verticalAlign=middle;resizable=0;points=[];" parent="-azY2W3yGZLZTdUkkEGY-26" vertex="1" connectable="0">
          <mxGeometry x="-0.0051" y="-1" relative="1" as="geometry">
            <mxPoint as="offset" />
          </mxGeometry>
        </mxCell>
        <mxCell id="-azY2W3yGZLZTdUkkEGY-21" value="Ajouter Rendez-vous&amp;nbsp;" style="ellipse;whiteSpace=wrap;html=1;fillColor=#ffe6cc;strokeColor=#d79b00;" parent="WIyWlLk6GJQsqaUBKTNV-1" vertex="1">
          <mxGeometry x="677.25" y="380" width="81" height="40" as="geometry" />
        </mxCell>
        <mxCell id="-azY2W3yGZLZTdUkkEGY-27" value="lister Rendez-vous&amp;nbsp;" style="ellipse;whiteSpace=wrap;html=1;fillColor=#ffe6cc;strokeColor=#d79b00;" parent="WIyWlLk6GJQsqaUBKTNV-1" vertex="1">
          <mxGeometry x="594.5" y="520" width="95.5" height="50" as="geometry" />
        </mxCell>
        <mxCell id="-azY2W3yGZLZTdUkkEGY-28" value="include" style="endArrow=open;endSize=12;dashed=1;html=1;rounded=0;entryX=1;entryY=1;entryDx=0;entryDy=0;fillColor=#dae8fc;strokeColor=#6c8ebf;" parent="WIyWlLk6GJQsqaUBKTNV-1" source="-azY2W3yGZLZTdUkkEGY-27" target="-azY2W3yGZLZTdUkkEGY-16" edge="1">
          <mxGeometry width="160" relative="1" as="geometry">
            <mxPoint x="513" y="532.5" as="sourcePoint" />
            <mxPoint x="490" y="682.5" as="targetPoint" />
            <Array as="points" />
          </mxGeometry>
        </mxCell>
        <mxCell id="-azY2W3yGZLZTdUkkEGY-30" value="Lister Patient" style="ellipse;whiteSpace=wrap;html=1;fillColor=#ffe6cc;strokeColor=#d79b00;" parent="WIyWlLk6GJQsqaUBKTNV-1" vertex="1">
          <mxGeometry x="490" y="150" width="98.25" height="60" as="geometry" />
        </mxCell>
        <mxCell id="-azY2W3yGZLZTdUkkEGY-31" value="include" style="endArrow=open;endSize=12;dashed=1;html=1;rounded=0;entryX=0.758;entryY=0.944;entryDx=0;entryDy=0;entryPerimeter=0;" parent="WIyWlLk6GJQsqaUBKTNV-1" source="-azY2W3yGZLZTdUkkEGY-30" target="-azY2W3yGZLZTdUkkEGY-4" edge="1">
          <mxGeometry width="160" relative="1" as="geometry">
            <mxPoint x="502" y="280" as="sourcePoint" />
            <mxPoint x="407" y="330" as="targetPoint" />
            <Array as="points" />
          </mxGeometry>
        </mxCell>
        <mxCell id="-azY2W3yGZLZTdUkkEGY-32" value="Authentification" style="ellipse;whiteSpace=wrap;html=1;fillColor=#fff2cc;strokeColor=#d6b656;" parent="WIyWlLk6GJQsqaUBKTNV-1" vertex="1">
          <mxGeometry x="770" y="300" width="160" height="70" as="geometry" />
        </mxCell>
        <mxCell id="-azY2W3yGZLZTdUkkEGY-34" value="" style="endArrow=open;endSize=12;dashed=1;html=1;rounded=0;exitX=0.5;exitY=1;exitDx=0;exitDy=0;entryX=0.818;entryY=0.92;entryDx=0;entryDy=0;entryPerimeter=0;fillColor=#ffe6cc;strokeColor=#d79b00;strokeWidth=2;" parent="WIyWlLk6GJQsqaUBKTNV-1" source="-azY2W3yGZLZTdUkkEGY-16" target="-azY2W3yGZLZTdUkkEGY-32" edge="1">
          <mxGeometry width="160" relative="1" as="geometry">
            <mxPoint x="318" y="640" as="sourcePoint" />
            <mxPoint x="900" y="720" as="targetPoint" />
            <Array as="points">
              <mxPoint x="330" y="690" />
              <mxPoint x="910" y="690" />
            </Array>
          </mxGeometry>
        </mxCell>
        <mxCell id="-azY2W3yGZLZTdUkkEGY-35" value="include" style="edgeLabel;html=1;align=center;verticalAlign=middle;resizable=0;points=[];" parent="-azY2W3yGZLZTdUkkEGY-34" vertex="1" connectable="0">
          <mxGeometry x="-0.0051" y="-1" relative="1" as="geometry">
            <mxPoint as="offset" />
          </mxGeometry>
        </mxCell>
        <mxCell id="-azY2W3yGZLZTdUkkEGY-45" value="rappeller Rendez-vous&amp;nbsp;" style="ellipse;whiteSpace=wrap;html=1;fillColor=#ffe6cc;strokeColor=#d79b00;" parent="WIyWlLk6GJQsqaUBKTNV-1" vertex="1">
          <mxGeometry x="394.5699999999999" y="585" width="104.43" height="40" as="geometry" />
        </mxCell>
        <mxCell id="-azY2W3yGZLZTdUkkEGY-46" value="extends" style="endArrow=open;endSize=12;dashed=1;html=1;rounded=0;entryX=0;entryY=1;entryDx=0;entryDy=0;fillColor=#dae8fc;strokeColor=#6c8ebf;" parent="WIyWlLk6GJQsqaUBKTNV-1" source="-azY2W3yGZLZTdUkkEGY-45" target="-azY2W3yGZLZTdUkkEGY-27" edge="1">
          <mxGeometry width="160" relative="1" as="geometry">
            <mxPoint x="427.93" y="548.5" as="sourcePoint" />
            <mxPoint x="302.99999999999994" y="580" as="targetPoint" />
            <Array as="points" />
          </mxGeometry>
        </mxCell>
        <mxCell id="-azY2W3yGZLZTdUkkEGY-52" value="" style="whiteSpace=wrap;html=1;aspect=fixed;strokeColor=#0d0d0d;" parent="WIyWlLk6GJQsqaUBKTNV-1" vertex="1">
          <mxGeometry x="240" y="830" width="820" height="820" as="geometry" />
        </mxCell>
        <mxCell id="-azY2W3yGZLZTdUkkEGY-53" value="medecin" style="shape=umlActor;verticalLabelPosition=bottom;verticalAlign=top;html=1;outlineConnect=0;fillColor=#ffe6cc;strokeColor=#d79b00;strokeWidth=3;" parent="WIyWlLk6GJQsqaUBKTNV-1" vertex="1">
          <mxGeometry x="30" y="980" width="60" height="300" as="geometry" />
        </mxCell>
        <mxCell id="-azY2W3yGZLZTdUkkEGY-54" value="extends" style="endArrow=open;endSize=12;dashed=1;html=1;rounded=0;exitX=0.5;exitY=1;exitDx=0;exitDy=0;" parent="WIyWlLk6GJQsqaUBKTNV-1" source="-azY2W3yGZLZTdUkkEGY-60" target="-azY2W3yGZLZTdUkkEGY-128" edge="1">
          <mxGeometry width="160" relative="1" as="geometry">
            <mxPoint x="470" y="960" as="sourcePoint" />
            <mxPoint x="367" y="1010" as="targetPoint" />
            <Array as="points" />
          </mxGeometry>
        </mxCell>
        <mxCell id="-azY2W3yGZLZTdUkkEGY-55" value="insérer&amp;nbsp; Dosssier patient" style="ellipse;whiteSpace=wrap;html=1;fillColor=#ffe6cc;strokeColor=#d79b00;" parent="WIyWlLk6GJQsqaUBKTNV-1" vertex="1">
          <mxGeometry x="325" y="900" width="105" height="60" as="geometry" />
        </mxCell>
        <mxCell id="-azY2W3yGZLZTdUkkEGY-56" value="Géstion Dossier Patient" style="ellipse;whiteSpace=wrap;html=1;fillColor=#ffe6cc;strokeColor=#d79b00;" parent="WIyWlLk6GJQsqaUBKTNV-1" vertex="1">
          <mxGeometry x="250" y="990" width="120" height="60" as="geometry" />
        </mxCell>
        <mxCell id="-azY2W3yGZLZTdUkkEGY-58" value="cas d&#39;utilisation du médecin&amp;nbsp;" style="rounded=0;whiteSpace=wrap;html=1;" parent="WIyWlLk6GJQsqaUBKTNV-1" vertex="1">
          <mxGeometry x="390" y="830" width="370" height="20" as="geometry" />
        </mxCell>
        <mxCell id="-azY2W3yGZLZTdUkkEGY-59" value="extends" style="endArrow=open;endSize=12;dashed=1;html=1;rounded=0;entryX=0;entryY=0.5;entryDx=0;entryDy=0;" parent="WIyWlLk6GJQsqaUBKTNV-1" source="-azY2W3yGZLZTdUkkEGY-55" target="-azY2W3yGZLZTdUkkEGY-128" edge="1">
          <mxGeometry width="160" relative="1" as="geometry">
            <mxPoint x="365" y="960" as="sourcePoint" />
            <mxPoint x="280" y="1020" as="targetPoint" />
            <Array as="points" />
          </mxGeometry>
        </mxCell>
        <mxCell id="-azY2W3yGZLZTdUkkEGY-60" value="Modifier DP" style="ellipse;whiteSpace=wrap;html=1;fillColor=#ffe6cc;strokeColor=#d79b00;" parent="WIyWlLk6GJQsqaUBKTNV-1" vertex="1">
          <mxGeometry x="482.57" y="890" width="70" height="40" as="geometry" />
        </mxCell>
        <mxCell id="-azY2W3yGZLZTdUkkEGY-61" value="Archiver" style="ellipse;whiteSpace=wrap;html=1;fillColor=#ffe6cc;strokeColor=#d79b00;" parent="WIyWlLk6GJQsqaUBKTNV-1" vertex="1">
          <mxGeometry x="632.2299999999999" y="900" width="70" height="40" as="geometry" />
        </mxCell>
        <mxCell id="-azY2W3yGZLZTdUkkEGY-62" value="extends" style="endArrow=open;endSize=12;dashed=1;html=1;rounded=0;entryX=0.5;entryY=0;entryDx=0;entryDy=0;exitX=0;exitY=0.5;exitDx=0;exitDy=0;" parent="WIyWlLk6GJQsqaUBKTNV-1" source="-azY2W3yGZLZTdUkkEGY-61" target="-azY2W3yGZLZTdUkkEGY-128" edge="1">
          <mxGeometry width="160" relative="1" as="geometry">
            <mxPoint x="480" y="970" as="sourcePoint" />
            <mxPoint x="351" y="1023" as="targetPoint" />
            <Array as="points" />
          </mxGeometry>
        </mxCell>
        <mxCell id="-azY2W3yGZLZTdUkkEGY-63" value="Prendre note" style="ellipse;whiteSpace=wrap;html=1;fillColor=#ffe6cc;strokeColor=#d79b00;" parent="WIyWlLk6GJQsqaUBKTNV-1" vertex="1">
          <mxGeometry x="710.0000000000001" y="950" width="70" height="40" as="geometry" />
        </mxCell>
        <mxCell id="-azY2W3yGZLZTdUkkEGY-64" value="extends" style="endArrow=open;endSize=12;dashed=1;html=1;rounded=0;entryX=1;entryY=0;entryDx=0;entryDy=0;exitX=0;exitY=1;exitDx=0;exitDy=0;" parent="WIyWlLk6GJQsqaUBKTNV-1" source="-azY2W3yGZLZTdUkkEGY-63" target="-azY2W3yGZLZTdUkkEGY-128" edge="1">
          <mxGeometry width="160" relative="1" as="geometry">
            <mxPoint x="590" y="1025" as="sourcePoint" />
            <mxPoint x="410" y="1040" as="targetPoint" />
            <Array as="points" />
          </mxGeometry>
        </mxCell>
        <mxCell id="-azY2W3yGZLZTdUkkEGY-65" value="extends" style="endArrow=open;endSize=12;dashed=1;html=1;rounded=0;entryX=0.596;entryY=0.03;entryDx=0;entryDy=0;entryPerimeter=0;fillColor=#dae8fc;strokeColor=#6c8ebf;" parent="WIyWlLk6GJQsqaUBKTNV-1" source="-azY2W3yGZLZTdUkkEGY-66" target="-azY2W3yGZLZTdUkkEGY-27" edge="1">
          <mxGeometry width="160" relative="1" as="geometry">
            <mxPoint x="235.21" y="416" as="sourcePoint" />
            <mxPoint x="328.21" y="524" as="targetPoint" />
            <Array as="points" />
          </mxGeometry>
        </mxCell>
        <mxCell id="-azY2W3yGZLZTdUkkEGY-66" value="imprimer Rendez-vous&amp;nbsp;" style="ellipse;whiteSpace=wrap;html=1;fillColor=#ffe6cc;strokeColor=#d79b00;" parent="WIyWlLk6GJQsqaUBKTNV-1" vertex="1">
          <mxGeometry x="521" y="360" width="95.79" height="40" as="geometry" />
        </mxCell>
        <mxCell id="-azY2W3yGZLZTdUkkEGY-68" value="Verifier la disponibilité&amp;nbsp;" style="ellipse;whiteSpace=wrap;html=1;fillColor=#ffe6cc;strokeColor=#d79b00;" parent="WIyWlLk6GJQsqaUBKTNV-1" vertex="1">
          <mxGeometry x="384.5" y="400" width="79" height="40" as="geometry" />
        </mxCell>
        <mxCell id="-azY2W3yGZLZTdUkkEGY-69" value="extends" style="endArrow=open;endSize=12;dashed=1;html=1;rounded=0;exitX=0.354;exitY=0.973;exitDx=0;exitDy=0;exitPerimeter=0;fillColor=#dae8fc;strokeColor=#6c8ebf;" parent="WIyWlLk6GJQsqaUBKTNV-1" source="-azY2W3yGZLZTdUkkEGY-68" target="-azY2W3yGZLZTdUkkEGY-27" edge="1">
          <mxGeometry width="160" relative="1" as="geometry">
            <mxPoint x="557" y="130" as="sourcePoint" />
            <mxPoint x="363" y="490" as="targetPoint" />
            <Array as="points" />
          </mxGeometry>
        </mxCell>
        <mxCell id="-azY2W3yGZLZTdUkkEGY-83" value="Choisir planning" style="ellipse;whiteSpace=wrap;html=1;fillColor=#ffe6cc;strokeColor=#d79b00;" parent="WIyWlLk6GJQsqaUBKTNV-1" vertex="1">
          <mxGeometry x="527.8" y="625" width="104.43" height="40" as="geometry" />
        </mxCell>
        <mxCell id="-azY2W3yGZLZTdUkkEGY-84" value="extends" style="endArrow=open;endSize=12;dashed=1;html=1;rounded=0;entryX=0.5;entryY=1;entryDx=0;entryDy=0;fillColor=#dae8fc;strokeColor=#6c8ebf;" parent="WIyWlLk6GJQsqaUBKTNV-1" source="-azY2W3yGZLZTdUkkEGY-83" target="-azY2W3yGZLZTdUkkEGY-27" edge="1">
          <mxGeometry width="160" relative="1" as="geometry">
            <mxPoint x="299.93" y="558.5" as="sourcePoint" />
            <mxPoint x="430" y="549" as="targetPoint" />
            <Array as="points" />
          </mxGeometry>
        </mxCell>
        <mxCell id="-azY2W3yGZLZTdUkkEGY-86" value="" style="endArrow=none;html=1;rounded=0;exitX=0.5;exitY=0.5;exitDx=0;exitDy=0;exitPerimeter=0;entryX=0;entryY=0.5;entryDx=0;entryDy=0;" parent="WIyWlLk6GJQsqaUBKTNV-1" source="-azY2W3yGZLZTdUkkEGY-2" target="-azY2W3yGZLZTdUkkEGY-16" edge="1">
          <mxGeometry width="50" height="50" relative="1" as="geometry">
            <mxPoint x="184.5" y="220" as="sourcePoint" />
            <mxPoint x="365.5" y="454" as="targetPoint" />
          </mxGeometry>
        </mxCell>
        <mxCell id="-azY2W3yGZLZTdUkkEGY-89" value="Géstion Rendez-vous&amp;nbsp;" style="ellipse;whiteSpace=wrap;html=1;fillColor=#ffe6cc;strokeColor=#d79b00;" parent="WIyWlLk6GJQsqaUBKTNV-1" vertex="1">
          <mxGeometry x="250" y="1240" width="137.5" height="60" as="geometry" />
        </mxCell>
        <mxCell id="-azY2W3yGZLZTdUkkEGY-91" value="consulter&amp;nbsp; rendez-vous&amp;nbsp;" style="ellipse;whiteSpace=wrap;html=1;fillColor=#ffe6cc;strokeColor=#d79b00;" parent="WIyWlLk6GJQsqaUBKTNV-1" vertex="1">
          <mxGeometry x="293" y="1120" width="132.5" height="60" as="geometry" />
        </mxCell>
        <mxCell id="-azY2W3yGZLZTdUkkEGY-92" value="extends" style="endArrow=open;endSize=12;dashed=1;html=1;rounded=0;exitX=1;exitY=1;exitDx=0;exitDy=0;" parent="WIyWlLk6GJQsqaUBKTNV-1" source="-azY2W3yGZLZTdUkkEGY-91" target="-azY2W3yGZLZTdUkkEGY-99" edge="1">
          <mxGeometry width="160" relative="1" as="geometry">
            <mxPoint x="380" y="1278.1999999999998" as="sourcePoint" />
            <mxPoint x="515" y="1220" as="targetPoint" />
            <Array as="points" />
          </mxGeometry>
        </mxCell>
        <mxCell id="-azY2W3yGZLZTdUkkEGY-93" value="modifier rendez-vous&amp;nbsp;" style="ellipse;whiteSpace=wrap;html=1;fillColor=#ffe6cc;strokeColor=#d79b00;" parent="WIyWlLk6GJQsqaUBKTNV-1" vertex="1">
          <mxGeometry x="501.52" y="1120" width="138.48" height="70" as="geometry" />
        </mxCell>
        <mxCell id="-azY2W3yGZLZTdUkkEGY-94" value="extends" style="endArrow=open;endSize=12;dashed=1;html=1;rounded=0;exitX=0.5;exitY=1;exitDx=0;exitDy=0;" parent="WIyWlLk6GJQsqaUBKTNV-1" source="-azY2W3yGZLZTdUkkEGY-93" target="-azY2W3yGZLZTdUkkEGY-99" edge="1">
          <mxGeometry width="160" relative="1" as="geometry">
            <mxPoint x="518.5" y="1258.1999999999998" as="sourcePoint" />
            <mxPoint x="477.5" y="1280" as="targetPoint" />
            <Array as="points" />
          </mxGeometry>
        </mxCell>
        <mxCell id="-azY2W3yGZLZTdUkkEGY-95" value="Archiver rendez-vous&amp;nbsp;" style="ellipse;whiteSpace=wrap;html=1;fillColor=#ffe6cc;strokeColor=#d79b00;" parent="WIyWlLk6GJQsqaUBKTNV-1" vertex="1">
          <mxGeometry x="692.75" y="1150" width="137.25" height="70" as="geometry" />
        </mxCell>
        <mxCell id="-azY2W3yGZLZTdUkkEGY-96" value="extends" style="endArrow=open;endSize=12;dashed=1;html=1;rounded=0;exitX=0.409;exitY=0.974;exitDx=0;exitDy=0;exitPerimeter=0;" parent="WIyWlLk6GJQsqaUBKTNV-1" source="-azY2W3yGZLZTdUkkEGY-95" target="-azY2W3yGZLZTdUkkEGY-99" edge="1">
          <mxGeometry width="160" relative="1" as="geometry">
            <mxPoint x="628.72" y="1279.1999999999998" as="sourcePoint" />
            <mxPoint x="484.22" y="1325" as="targetPoint" />
            <Array as="points" />
          </mxGeometry>
        </mxCell>
        <mxCell id="-azY2W3yGZLZTdUkkEGY-98" value="include" style="endArrow=open;endSize=12;dashed=1;html=1;rounded=0;exitX=0;exitY=1;exitDx=0;exitDy=0;entryX=0.958;entryY=0.636;entryDx=0;entryDy=0;entryPerimeter=0;" parent="WIyWlLk6GJQsqaUBKTNV-1" source="-azY2W3yGZLZTdUkkEGY-99" target="-azY2W3yGZLZTdUkkEGY-89" edge="1">
          <mxGeometry width="160" relative="1" as="geometry">
            <mxPoint x="677.15" y="1349.1999999999998" as="sourcePoint" />
            <mxPoint x="471.43" y="1390" as="targetPoint" />
            <Array as="points" />
          </mxGeometry>
        </mxCell>
        <mxCell id="-azY2W3yGZLZTdUkkEGY-99" value="Lister Rendez-vous" style="ellipse;whiteSpace=wrap;html=1;fillColor=#ffe6cc;strokeColor=#d79b00;" parent="WIyWlLk6GJQsqaUBKTNV-1" vertex="1">
          <mxGeometry x="520" y="1250" width="116.25" height="60" as="geometry" />
        </mxCell>
        <mxCell id="-azY2W3yGZLZTdUkkEGY-100" value="" style="endArrow=none;html=1;rounded=0;exitX=0.75;exitY=0.1;exitDx=0;exitDy=0;exitPerimeter=0;entryX=0;entryY=1;entryDx=0;entryDy=0;" parent="WIyWlLk6GJQsqaUBKTNV-1" source="-azY2W3yGZLZTdUkkEGY-53" target="-azY2W3yGZLZTdUkkEGY-56" edge="1">
          <mxGeometry width="50" height="50" relative="1" as="geometry">
            <mxPoint x="210" y="1110" as="sourcePoint" />
            <mxPoint x="260" y="1060" as="targetPoint" />
          </mxGeometry>
        </mxCell>
        <mxCell id="-azY2W3yGZLZTdUkkEGY-101" value="" style="endArrow=none;html=1;rounded=0;entryX=0;entryY=0.5;entryDx=0;entryDy=0;exitX=1;exitY=0.3333333333333333;exitDx=0;exitDy=0;exitPerimeter=0;" parent="WIyWlLk6GJQsqaUBKTNV-1" source="-azY2W3yGZLZTdUkkEGY-53" target="-azY2W3yGZLZTdUkkEGY-89" edge="1">
          <mxGeometry width="50" height="50" relative="1" as="geometry">
            <mxPoint x="120" y="1160" as="sourcePoint" />
            <mxPoint x="285" y="1060" as="targetPoint" />
          </mxGeometry>
        </mxCell>
        <mxCell id="-azY2W3yGZLZTdUkkEGY-103" value="S&#39;authentifier" style="ellipse;whiteSpace=wrap;html=1;fillColor=#fff2cc;strokeColor=#d6b656;" parent="WIyWlLk6GJQsqaUBKTNV-1" vertex="1">
          <mxGeometry x="870" y="1060" width="170" height="100" as="geometry" />
        </mxCell>
        <mxCell id="-azY2W3yGZLZTdUkkEGY-104" value="include" style="endArrow=open;endSize=12;dashed=1;html=1;rounded=0;exitX=0.233;exitY=0.1;exitDx=0;exitDy=0;exitPerimeter=0;fillColor=#ffe6cc;strokeColor=#000000;strokeWidth=2;" parent="WIyWlLk6GJQsqaUBKTNV-1" source="-azY2W3yGZLZTdUkkEGY-56" target="-azY2W3yGZLZTdUkkEGY-103" edge="1">
          <mxGeometry width="160" relative="1" as="geometry">
            <mxPoint x="250" y="1020" as="sourcePoint" />
            <mxPoint x="732.8300175398804" y="1122.860201255382" as="targetPoint" />
            <Array as="points">
              <mxPoint x="263" y="870" />
              <mxPoint x="960" y="870" />
            </Array>
          </mxGeometry>
        </mxCell>
        <mxCell id="-azY2W3yGZLZTdUkkEGY-105" value="include" style="endArrow=open;endSize=12;dashed=1;html=1;rounded=0;exitX=0;exitY=0;exitDx=0;exitDy=0;fillColor=#ffe6cc;strokeColor=#000000;strokeWidth=2;" parent="WIyWlLk6GJQsqaUBKTNV-1" source="-azY2W3yGZLZTdUkkEGY-89" target="-azY2W3yGZLZTdUkkEGY-103" edge="1">
          <mxGeometry width="160" relative="1" as="geometry">
            <mxPoint x="288.9640301357738" y="1301.2232505322243" as="sourcePoint" />
            <mxPoint x="735.6198122229184" y="1104.9728437302085" as="targetPoint" />
            <Array as="points">
              <mxPoint x="270" y="1090" />
            </Array>
          </mxGeometry>
        </mxCell>
        <mxCell id="-azY2W3yGZLZTdUkkEGY-106" value="consulter statistiques&amp;nbsp;" style="ellipse;whiteSpace=wrap;html=1;fillColor=#ffe6cc;strokeColor=#d79b00;" parent="WIyWlLk6GJQsqaUBKTNV-1" vertex="1">
          <mxGeometry x="255.5" y="1380" width="170" height="70" as="geometry" />
        </mxCell>
        <mxCell id="-azY2W3yGZLZTdUkkEGY-108" value="" style="endArrow=none;html=1;rounded=0;exitX=0.5;exitY=0.5;exitDx=0;exitDy=0;exitPerimeter=0;entryX=0.226;entryY=0.141;entryDx=0;entryDy=0;entryPerimeter=0;" parent="WIyWlLk6GJQsqaUBKTNV-1" source="-azY2W3yGZLZTdUkkEGY-53" target="-azY2W3yGZLZTdUkkEGY-106" edge="1">
          <mxGeometry width="50" height="50" relative="1" as="geometry">
            <mxPoint x="260" y="1480" as="sourcePoint" />
            <mxPoint x="310" y="1430" as="targetPoint" />
          </mxGeometry>
        </mxCell>
        <mxCell id="-azY2W3yGZLZTdUkkEGY-109" value="voir donnees patients" style="ellipse;whiteSpace=wrap;html=1;fillColor=#ffe6cc;strokeColor=#d79b00;" parent="WIyWlLk6GJQsqaUBKTNV-1" vertex="1">
          <mxGeometry x="531.75" y="1340" width="104.5" height="60" as="geometry" />
        </mxCell>
        <mxCell id="-azY2W3yGZLZTdUkkEGY-110" value="extends" style="endArrow=open;endSize=12;dashed=1;html=1;rounded=0;exitX=0;exitY=1;exitDx=0;exitDy=0;" parent="WIyWlLk6GJQsqaUBKTNV-1" source="-azY2W3yGZLZTdUkkEGY-109" target="-azY2W3yGZLZTdUkkEGY-106" edge="1">
          <mxGeometry width="160" relative="1" as="geometry">
            <mxPoint x="677.15" y="1429.1999999999998" as="sourcePoint" />
            <mxPoint x="427" y="1415" as="targetPoint" />
            <Array as="points" />
          </mxGeometry>
        </mxCell>
        <mxCell id="-azY2W3yGZLZTdUkkEGY-111" value="voir donnees rendez-vous&amp;nbsp;" style="ellipse;whiteSpace=wrap;html=1;fillColor=#ffe6cc;strokeColor=#d79b00;" parent="WIyWlLk6GJQsqaUBKTNV-1" vertex="1">
          <mxGeometry x="647.87" y="1385" width="162.13" height="60" as="geometry" />
        </mxCell>
        <mxCell id="-azY2W3yGZLZTdUkkEGY-112" value="extends" style="endArrow=open;endSize=12;dashed=1;html=1;rounded=0;exitX=0;exitY=1;exitDx=0;exitDy=0;entryX=0.931;entryY=0.709;entryDx=0;entryDy=0;entryPerimeter=0;" parent="WIyWlLk6GJQsqaUBKTNV-1" source="-azY2W3yGZLZTdUkkEGY-111" target="-azY2W3yGZLZTdUkkEGY-106" edge="1">
          <mxGeometry width="160" relative="1" as="geometry">
            <mxPoint x="716.9399999999999" y="1499.1999999999998" as="sourcePoint" />
            <mxPoint x="410" y="1390" as="targetPoint" />
            <Array as="points" />
          </mxGeometry>
        </mxCell>
        <mxCell id="-azY2W3yGZLZTdUkkEGY-113" value="parametrer ses donnees" style="ellipse;whiteSpace=wrap;html=1;fillColor=#ffe6cc;strokeColor=#d79b00;" parent="WIyWlLk6GJQsqaUBKTNV-1" vertex="1">
          <mxGeometry x="271" y="1490" width="170" height="70" as="geometry" />
        </mxCell>
        <mxCell id="-azY2W3yGZLZTdUkkEGY-114" value="mettre a jour son profil" style="ellipse;whiteSpace=wrap;html=1;fillColor=#ffe6cc;strokeColor=#d79b00;" parent="WIyWlLk6GJQsqaUBKTNV-1" vertex="1">
          <mxGeometry x="572.75" y="1510" width="104.5" height="60" as="geometry" />
        </mxCell>
        <mxCell id="-azY2W3yGZLZTdUkkEGY-116" value="extends" style="endArrow=open;endSize=12;dashed=1;html=1;rounded=0;exitX=0.049;exitY=0.687;exitDx=0;exitDy=0;exitPerimeter=0;" parent="WIyWlLk6GJQsqaUBKTNV-1" source="-azY2W3yGZLZTdUkkEGY-114" target="-azY2W3yGZLZTdUkkEGY-113" edge="1">
          <mxGeometry width="160" relative="1" as="geometry">
            <mxPoint x="654" y="1381" as="sourcePoint" />
            <mxPoint x="419" y="1410" as="targetPoint" />
            <Array as="points" />
          </mxGeometry>
        </mxCell>
        <mxCell id="-azY2W3yGZLZTdUkkEGY-120" value="include" style="endArrow=open;endSize=12;dashed=1;html=1;rounded=0;exitX=0.5;exitY=1;exitDx=0;exitDy=0;fillColor=#ffe6cc;strokeColor=#000000;strokeWidth=2;" parent="WIyWlLk6GJQsqaUBKTNV-1" source="-azY2W3yGZLZTdUkkEGY-106" target="-azY2W3yGZLZTdUkkEGY-103" edge="1">
          <mxGeometry width="160" relative="1" as="geometry">
            <mxPoint x="359" y="1350" as="sourcePoint" />
            <mxPoint x="872" y="1163" as="targetPoint" />
            <Array as="points">
              <mxPoint x="440" y="1470" />
              <mxPoint x="930" y="1470" />
            </Array>
          </mxGeometry>
        </mxCell>
        <mxCell id="-azY2W3yGZLZTdUkkEGY-121" value="include" style="endArrow=open;endSize=12;dashed=1;html=1;rounded=0;entryX=0.8;entryY=0.893;entryDx=0;entryDy=0;entryPerimeter=0;exitX=0;exitY=1;exitDx=0;exitDy=0;fillColor=#ffe6cc;strokeColor=#0d0d0d;strokeWidth=2;" parent="WIyWlLk6GJQsqaUBKTNV-1" source="-azY2W3yGZLZTdUkkEGY-113" target="-azY2W3yGZLZTdUkkEGY-103" edge="1">
          <mxGeometry width="160" relative="1" as="geometry">
            <mxPoint x="372" y="1510" as="sourcePoint" />
            <mxPoint x="834" y="1170" as="targetPoint" />
            <Array as="points">
              <mxPoint x="310" y="1610" />
              <mxPoint x="1020" y="1630" />
            </Array>
          </mxGeometry>
        </mxCell>
        <mxCell id="-azY2W3yGZLZTdUkkEGY-122" value="Rechercher" style="ellipse;whiteSpace=wrap;html=1;fillColor=#ffe6cc;strokeColor=#d79b00;" parent="WIyWlLk6GJQsqaUBKTNV-1" vertex="1">
          <mxGeometry x="721.0000000000001" y="1040" width="70" height="40" as="geometry" />
        </mxCell>
        <mxCell id="-azY2W3yGZLZTdUkkEGY-123" value="extends" style="endArrow=open;endSize=12;dashed=1;html=1;rounded=0;" parent="WIyWlLk6GJQsqaUBKTNV-1" source="-azY2W3yGZLZTdUkkEGY-122" target="-azY2W3yGZLZTdUkkEGY-128" edge="1">
          <mxGeometry width="160" relative="1" as="geometry">
            <mxPoint x="615" y="954" as="sourcePoint" />
            <mxPoint x="425" y="1027" as="targetPoint" />
            <Array as="points" />
          </mxGeometry>
        </mxCell>
        <mxCell id="-azY2W3yGZLZTdUkkEGY-124" value="rechercher rendez-vous&amp;nbsp;" style="ellipse;whiteSpace=wrap;html=1;fillColor=#ffe6cc;strokeColor=#d79b00;" parent="WIyWlLk6GJQsqaUBKTNV-1" vertex="1">
          <mxGeometry x="775.5" y="1270" width="134.5" height="60" as="geometry" />
        </mxCell>
        <mxCell id="-azY2W3yGZLZTdUkkEGY-125" value="extends" style="endArrow=open;endSize=12;dashed=1;html=1;rounded=0;" parent="WIyWlLk6GJQsqaUBKTNV-1" source="-azY2W3yGZLZTdUkkEGY-124" target="-azY2W3yGZLZTdUkkEGY-99" edge="1">
          <mxGeometry width="160" relative="1" as="geometry">
            <mxPoint x="665" y="1170" as="sourcePoint" />
            <mxPoint x="435" y="1285" as="targetPoint" />
            <Array as="points" />
          </mxGeometry>
        </mxCell>
        <mxCell id="-azY2W3yGZLZTdUkkEGY-126" value="" style="endArrow=none;html=1;rounded=0;exitX=1;exitY=1;exitDx=0;exitDy=0;exitPerimeter=0;entryX=0.069;entryY=0.76;entryDx=0;entryDy=0;entryPerimeter=0;" parent="WIyWlLk6GJQsqaUBKTNV-1" source="-azY2W3yGZLZTdUkkEGY-53" target="-azY2W3yGZLZTdUkkEGY-113" edge="1">
          <mxGeometry width="50" height="50" relative="1" as="geometry">
            <mxPoint x="130" y="1170" as="sourcePoint" />
            <mxPoint x="308" y="1350" as="targetPoint" />
            <Array as="points">
              <mxPoint x="190" y="1370" />
            </Array>
          </mxGeometry>
        </mxCell>
        <mxCell id="-azY2W3yGZLZTdUkkEGY-128" value="Lister Patient" style="ellipse;whiteSpace=wrap;html=1;fillColor=#ffe6cc;strokeColor=#d79b00;" parent="WIyWlLk6GJQsqaUBKTNV-1" vertex="1">
          <mxGeometry x="499.54" y="1010" width="102.75" height="50" as="geometry" />
        </mxCell>
        <mxCell id="-azY2W3yGZLZTdUkkEGY-129" value="include" style="endArrow=open;endSize=12;dashed=1;html=1;rounded=0;entryX=1;entryY=1;entryDx=0;entryDy=0;exitX=0;exitY=1;exitDx=0;exitDy=0;" parent="WIyWlLk6GJQsqaUBKTNV-1" source="-azY2W3yGZLZTdUkkEGY-128" target="-azY2W3yGZLZTdUkkEGY-56" edge="1">
          <mxGeometry width="160" relative="1" as="geometry">
            <mxPoint x="720" y="941" as="sourcePoint" />
            <mxPoint x="418" y="1049" as="targetPoint" />
            <Array as="points" />
          </mxGeometry>
        </mxCell>
        <mxCell id="-azY2W3yGZLZTdUkkEGY-130" value="" style="whiteSpace=wrap;html=1;aspect=fixed;" parent="WIyWlLk6GJQsqaUBKTNV-1" vertex="1">
          <mxGeometry x="250" y="1740" width="810" height="810" as="geometry" />
        </mxCell>
        <mxCell id="-azY2W3yGZLZTdUkkEGY-131" value="administrateurs" style="shape=umlActor;verticalLabelPosition=bottom;verticalAlign=top;html=1;outlineConnect=0;fillColor=#ffe6cc;strokeColor=#d79b00;strokeWidth=3;" parent="WIyWlLk6GJQsqaUBKTNV-1" vertex="1">
          <mxGeometry x="81" y="1940" width="69" height="170" as="geometry" />
        </mxCell>
        <mxCell id="-azY2W3yGZLZTdUkkEGY-133" value="Lister les utilisateurs&amp;nbsp;" style="ellipse;whiteSpace=wrap;html=1;fillColor=#ffe6cc;strokeColor=#d79b00;" parent="WIyWlLk6GJQsqaUBKTNV-1" vertex="1">
          <mxGeometry x="250" y="1900" width="160" height="100" as="geometry" />
        </mxCell>
        <mxCell id="-azY2W3yGZLZTdUkkEGY-134" value="extends" style="endArrow=open;endSize=12;dashed=1;html=1;rounded=0;entryX=0.073;entryY=0.286;entryDx=0;entryDy=0;entryPerimeter=0;" parent="WIyWlLk6GJQsqaUBKTNV-1" source="-azY2W3yGZLZTdUkkEGY-136" target="yJjiVAZASk3ynMtv89vW-3" edge="1">
          <mxGeometry width="160" relative="1" as="geometry">
            <mxPoint x="579.5" y="1972" as="sourcePoint" />
            <mxPoint x="448.5" y="1968" as="targetPoint" />
            <Array as="points" />
          </mxGeometry>
        </mxCell>
        <mxCell id="-azY2W3yGZLZTdUkkEGY-136" value="bloquer" style="ellipse;whiteSpace=wrap;html=1;fillColor=#ffe6cc;strokeColor=#d79b00;" parent="WIyWlLk6GJQsqaUBKTNV-1" vertex="1">
          <mxGeometry x="287.29" y="1790" width="115" height="50" as="geometry" />
        </mxCell>
        <mxCell id="-azY2W3yGZLZTdUkkEGY-137" value="confirmer" style="ellipse;whiteSpace=wrap;html=1;fillColor=#ffe6cc;strokeColor=#d79b00;" parent="WIyWlLk6GJQsqaUBKTNV-1" vertex="1">
          <mxGeometry x="594.5" y="1800" width="104.46" height="50" as="geometry" />
        </mxCell>
        <mxCell id="-azY2W3yGZLZTdUkkEGY-138" value="debloquer" style="ellipse;whiteSpace=wrap;html=1;fillColor=#ffe6cc;strokeColor=#d79b00;" parent="WIyWlLk6GJQsqaUBKTNV-1" vertex="1">
          <mxGeometry x="429" y="1800" width="102.75" height="50" as="geometry" />
        </mxCell>
        <mxCell id="-azY2W3yGZLZTdUkkEGY-139" value="extends" style="endArrow=open;endSize=12;dashed=1;html=1;rounded=0;" parent="WIyWlLk6GJQsqaUBKTNV-1" source="-azY2W3yGZLZTdUkkEGY-138" target="yJjiVAZASk3ynMtv89vW-3" edge="1">
          <mxGeometry width="160" relative="1" as="geometry">
            <mxPoint x="334" y="1849" as="sourcePoint" />
            <mxPoint x="371" y="1941" as="targetPoint" />
            <Array as="points" />
          </mxGeometry>
        </mxCell>
        <mxCell id="-azY2W3yGZLZTdUkkEGY-140" value="extends" style="endArrow=open;endSize=12;dashed=1;html=1;rounded=0;entryX=0.681;entryY=0.043;entryDx=0;entryDy=0;entryPerimeter=0;" parent="WIyWlLk6GJQsqaUBKTNV-1" source="-azY2W3yGZLZTdUkkEGY-137" target="yJjiVAZASk3ynMtv89vW-3" edge="1">
          <mxGeometry width="160" relative="1" as="geometry">
            <mxPoint x="437" y="1855" as="sourcePoint" />
            <mxPoint x="418" y="1947" as="targetPoint" />
            <Array as="points" />
          </mxGeometry>
        </mxCell>
        <mxCell id="-azY2W3yGZLZTdUkkEGY-141" value="modifier" style="ellipse;whiteSpace=wrap;html=1;fillColor=#ffe6cc;strokeColor=#d79b00;" parent="WIyWlLk6GJQsqaUBKTNV-1" vertex="1">
          <mxGeometry x="762" y="1810" width="110" height="50" as="geometry" />
        </mxCell>
        <mxCell id="-azY2W3yGZLZTdUkkEGY-142" value="extends" style="endArrow=open;endSize=12;dashed=1;html=1;rounded=0;entryX=1;entryY=0;entryDx=0;entryDy=0;" parent="WIyWlLk6GJQsqaUBKTNV-1" source="-azY2W3yGZLZTdUkkEGY-141" target="yJjiVAZASk3ynMtv89vW-3" edge="1">
          <mxGeometry width="160" relative="1" as="geometry">
            <mxPoint x="491.5" y="1925" as="sourcePoint" />
            <mxPoint x="482.5" y="2010" as="targetPoint" />
            <Array as="points" />
          </mxGeometry>
        </mxCell>
        <mxCell id="-azY2W3yGZLZTdUkkEGY-143" value="Archiver" style="ellipse;whiteSpace=wrap;html=1;fillColor=#ffe6cc;strokeColor=#d79b00;" parent="WIyWlLk6GJQsqaUBKTNV-1" vertex="1">
          <mxGeometry x="810" y="1895" width="110" height="50" as="geometry" />
        </mxCell>
        <mxCell id="-azY2W3yGZLZTdUkkEGY-144" value="extends" style="endArrow=open;endSize=12;dashed=1;html=1;rounded=0;entryX=1;entryY=0.5;entryDx=0;entryDy=0;" parent="WIyWlLk6GJQsqaUBKTNV-1" source="-azY2W3yGZLZTdUkkEGY-143" target="yJjiVAZASk3ynMtv89vW-3" edge="1">
          <mxGeometry width="160" relative="1" as="geometry">
            <mxPoint x="654" y="1844" as="sourcePoint" />
            <mxPoint x="450" y="1957" as="targetPoint" />
            <Array as="points" />
          </mxGeometry>
        </mxCell>
        <mxCell id="-azY2W3yGZLZTdUkkEGY-145" value="cas d&#39;utilisation admin" style="rounded=1;whiteSpace=wrap;html=1;" parent="WIyWlLk6GJQsqaUBKTNV-1" vertex="1">
          <mxGeometry x="470" y="1740" width="310" height="20" as="geometry" />
        </mxCell>
        <mxCell id="-azY2W3yGZLZTdUkkEGY-146" value="Gestion maintenance&amp;nbsp;" style="ellipse;whiteSpace=wrap;html=1;fillColor=#ffe6cc;strokeColor=#d79b00;" parent="WIyWlLk6GJQsqaUBKTNV-1" vertex="1">
          <mxGeometry x="272" y="2220" width="160" height="100" as="geometry" />
        </mxCell>
        <mxCell id="-azY2W3yGZLZTdUkkEGY-147" value="Gérer paramétrage&amp;nbsp;" style="ellipse;whiteSpace=wrap;html=1;fillColor=#ffe6cc;strokeColor=#d79b00;" parent="WIyWlLk6GJQsqaUBKTNV-1" vertex="1">
          <mxGeometry x="602.29" y="2160" width="110" height="50" as="geometry" />
        </mxCell>
        <mxCell id="-azY2W3yGZLZTdUkkEGY-148" value="extends" style="endArrow=open;endSize=12;dashed=1;html=1;rounded=0;entryX=0.913;entryY=0.229;entryDx=0;entryDy=0;entryPerimeter=0;" parent="WIyWlLk6GJQsqaUBKTNV-1" source="-azY2W3yGZLZTdUkkEGY-147" target="-azY2W3yGZLZTdUkkEGY-146" edge="1">
          <mxGeometry width="160" relative="1" as="geometry">
            <mxPoint x="654" y="1964" as="sourcePoint" />
            <mxPoint x="460" y="2100" as="targetPoint" />
            <Array as="points" />
          </mxGeometry>
        </mxCell>
        <mxCell id="-azY2W3yGZLZTdUkkEGY-149" value="Gerer donnees application&amp;nbsp;" style="ellipse;whiteSpace=wrap;html=1;fillColor=#ffe6cc;strokeColor=#d79b00;" parent="WIyWlLk6GJQsqaUBKTNV-1" vertex="1">
          <mxGeometry x="657.0000000000001" y="2230" width="110" height="50" as="geometry" />
        </mxCell>
        <mxCell id="-azY2W3yGZLZTdUkkEGY-150" value="extends" style="endArrow=open;endSize=12;dashed=1;html=1;rounded=0;entryX=1;entryY=0.5;entryDx=0;entryDy=0;" parent="WIyWlLk6GJQsqaUBKTNV-1" source="-azY2W3yGZLZTdUkkEGY-149" target="-azY2W3yGZLZTdUkkEGY-146" edge="1">
          <mxGeometry width="160" relative="1" as="geometry">
            <mxPoint x="676.5" y="2064" as="sourcePoint" />
            <mxPoint x="482.5" y="2200" as="targetPoint" />
            <Array as="points" />
          </mxGeometry>
        </mxCell>
        <mxCell id="-azY2W3yGZLZTdUkkEGY-151" value="modifier toutes les données&amp;nbsp;" style="ellipse;whiteSpace=wrap;html=1;fillColor=#ffe6cc;strokeColor=#d79b00;" parent="WIyWlLk6GJQsqaUBKTNV-1" vertex="1">
          <mxGeometry x="682.75" y="2300" width="110" height="50" as="geometry" />
        </mxCell>
        <mxCell id="-azY2W3yGZLZTdUkkEGY-152" value="extends" style="endArrow=open;endSize=12;dashed=1;html=1;rounded=0;entryX=1;entryY=1;entryDx=0;entryDy=0;" parent="WIyWlLk6GJQsqaUBKTNV-1" source="-azY2W3yGZLZTdUkkEGY-151" target="-azY2W3yGZLZTdUkkEGY-146" edge="1">
          <mxGeometry width="160" relative="1" as="geometry">
            <mxPoint x="686.5" y="2074" as="sourcePoint" />
            <mxPoint x="492.5" y="2210" as="targetPoint" />
            <Array as="points" />
          </mxGeometry>
        </mxCell>
        <mxCell id="-azY2W3yGZLZTdUkkEGY-153" value="voir donnees docteurs" style="ellipse;whiteSpace=wrap;html=1;fillColor=#ffe6cc;strokeColor=#d79b00;" parent="WIyWlLk6GJQsqaUBKTNV-1" vertex="1">
          <mxGeometry x="547" y="2396" width="110" height="50" as="geometry" />
        </mxCell>
        <mxCell id="-azY2W3yGZLZTdUkkEGY-154" value="extends" style="endArrow=open;endSize=12;dashed=1;html=1;rounded=0;entryX=0.962;entryY=0.317;entryDx=0;entryDy=0;entryPerimeter=0;" parent="WIyWlLk6GJQsqaUBKTNV-1" source="-azY2W3yGZLZTdUkkEGY-153" target="-azY2W3yGZLZTdUkkEGY-157" edge="1">
          <mxGeometry width="160" relative="1" as="geometry">
            <mxPoint x="696.5" y="2084" as="sourcePoint" />
            <mxPoint x="502.5" y="2220" as="targetPoint" />
            <Array as="points" />
          </mxGeometry>
        </mxCell>
        <mxCell id="-azY2W3yGZLZTdUkkEGY-155" value="voir donnees patients" style="ellipse;whiteSpace=wrap;html=1;fillColor=#ffe6cc;strokeColor=#d79b00;" parent="WIyWlLk6GJQsqaUBKTNV-1" vertex="1">
          <mxGeometry x="537.87" y="2462" width="110" height="50" as="geometry" />
        </mxCell>
        <mxCell id="-azY2W3yGZLZTdUkkEGY-156" value="extends" style="endArrow=open;endSize=12;dashed=1;html=1;rounded=0;entryX=0.908;entryY=0.744;entryDx=0;entryDy=0;entryPerimeter=0;" parent="WIyWlLk6GJQsqaUBKTNV-1" source="-azY2W3yGZLZTdUkkEGY-155" target="-azY2W3yGZLZTdUkkEGY-157" edge="1">
          <mxGeometry width="160" relative="1" as="geometry">
            <mxPoint x="696.25" y="2274" as="sourcePoint" />
            <mxPoint x="502.25" y="2410" as="targetPoint" />
            <Array as="points" />
          </mxGeometry>
        </mxCell>
        <mxCell id="-azY2W3yGZLZTdUkkEGY-157" value="consulter statistiques&amp;nbsp;" style="ellipse;whiteSpace=wrap;html=1;fillColor=#ffe6cc;strokeColor=#d79b00;" parent="WIyWlLk6GJQsqaUBKTNV-1" vertex="1">
          <mxGeometry x="262.79" y="2380" width="139.5" height="82" as="geometry" />
        </mxCell>
        <mxCell id="-azY2W3yGZLZTdUkkEGY-158" value="imprimer" style="ellipse;whiteSpace=wrap;html=1;fillColor=#ffe6cc;strokeColor=#d79b00;" parent="WIyWlLk6GJQsqaUBKTNV-1" vertex="1">
          <mxGeometry x="820" y="1990" width="110" height="50" as="geometry" />
        </mxCell>
        <mxCell id="-azY2W3yGZLZTdUkkEGY-159" value="extends" style="endArrow=open;endSize=12;dashed=1;html=1;rounded=0;entryX=1;entryY=1;entryDx=0;entryDy=0;" parent="WIyWlLk6GJQsqaUBKTNV-1" source="-azY2W3yGZLZTdUkkEGY-158" target="yJjiVAZASk3ynMtv89vW-3" edge="1">
          <mxGeometry width="160" relative="1" as="geometry">
            <mxPoint x="788" y="1864" as="sourcePoint" />
            <mxPoint x="590" y="2003" as="targetPoint" />
            <Array as="points" />
          </mxGeometry>
        </mxCell>
        <mxCell id="-azY2W3yGZLZTdUkkEGY-163" value="" style="endArrow=none;html=1;rounded=0;exitX=1;exitY=0.3333333333333333;exitDx=0;exitDy=0;exitPerimeter=0;entryX=0;entryY=0.5;entryDx=0;entryDy=0;" parent="WIyWlLk6GJQsqaUBKTNV-1" source="-azY2W3yGZLZTdUkkEGY-131" target="-azY2W3yGZLZTdUkkEGY-133" edge="1">
          <mxGeometry width="50" height="50" relative="1" as="geometry">
            <mxPoint x="250" y="2040" as="sourcePoint" />
            <mxPoint x="300" y="1990" as="targetPoint" />
          </mxGeometry>
        </mxCell>
        <mxCell id="-azY2W3yGZLZTdUkkEGY-164" value="" style="endArrow=none;html=1;rounded=0;exitX=0.503;exitY=0.626;exitDx=0;exitDy=0;exitPerimeter=0;" parent="WIyWlLk6GJQsqaUBKTNV-1" source="-azY2W3yGZLZTdUkkEGY-131" target="-azY2W3yGZLZTdUkkEGY-146" edge="1">
          <mxGeometry width="50" height="50" relative="1" as="geometry">
            <mxPoint x="160" y="2007" as="sourcePoint" />
            <mxPoint x="310" y="1990" as="targetPoint" />
          </mxGeometry>
        </mxCell>
        <mxCell id="-azY2W3yGZLZTdUkkEGY-165" value="" style="endArrow=none;html=1;rounded=0;exitX=1;exitY=1;exitDx=0;exitDy=0;exitPerimeter=0;" parent="WIyWlLk6GJQsqaUBKTNV-1" source="-azY2W3yGZLZTdUkkEGY-131" target="-azY2W3yGZLZTdUkkEGY-157" edge="1">
          <mxGeometry width="50" height="50" relative="1" as="geometry">
            <mxPoint x="120" y="2080" as="sourcePoint" />
            <mxPoint x="322" y="2142" as="targetPoint" />
          </mxGeometry>
        </mxCell>
        <mxCell id="-azY2W3yGZLZTdUkkEGY-166" value="include" style="endArrow=open;endSize=12;dashed=1;html=1;rounded=0;entryX=0.5;entryY=1;entryDx=0;entryDy=0;exitX=0.5;exitY=1;exitDx=0;exitDy=0;fillColor=#ffe6cc;strokeColor=#000000;strokeWidth=2;" parent="WIyWlLk6GJQsqaUBKTNV-1" source="-azY2W3yGZLZTdUkkEGY-157" target="-azY2W3yGZLZTdUkkEGY-167" edge="1">
          <mxGeometry width="160" relative="1" as="geometry">
            <mxPoint x="378.5" y="2350" as="sourcePoint" />
            <mxPoint x="639.2583058909156" y="2370.8629216357476" as="targetPoint" />
            <Array as="points">
              <mxPoint x="330" y="2530" />
              <mxPoint x="1000" y="2530" />
            </Array>
          </mxGeometry>
        </mxCell>
        <mxCell id="-azY2W3yGZLZTdUkkEGY-167" value="Gerer donnees application&amp;nbsp;" style="ellipse;whiteSpace=wrap;html=1;fillColor=#ffe6cc;strokeColor=#d79b00;" parent="WIyWlLk6GJQsqaUBKTNV-1" vertex="1">
          <mxGeometry x="907.25" y="2110" width="145.5" height="90" as="geometry" />
        </mxCell>
        <mxCell id="-azY2W3yGZLZTdUkkEGY-168" value="include" style="endArrow=open;endSize=12;dashed=1;html=1;rounded=0;strokeWidth=2;fillColor=#fff2cc;strokeColor=#000000;" parent="WIyWlLk6GJQsqaUBKTNV-1" source="-azY2W3yGZLZTdUkkEGY-146" target="-azY2W3yGZLZTdUkkEGY-167" edge="1">
          <mxGeometry width="160" relative="1" as="geometry">
            <mxPoint x="341.5513599413398" y="2120.7631762072197" as="sourcePoint" />
            <mxPoint x="858.403701054403" y="2057.005658878285" as="targetPoint" />
            <Array as="points">
              <mxPoint x="340" y="2130" />
              <mxPoint x="860" y="2120" />
            </Array>
          </mxGeometry>
        </mxCell>
        <mxCell id="-azY2W3yGZLZTdUkkEGY-169" value="include" style="endArrow=open;endSize=12;dashed=1;html=1;rounded=0;entryX=0.5;entryY=0;entryDx=0;entryDy=0;exitX=0;exitY=0;exitDx=0;exitDy=0;fillColor=#ffe6cc;strokeColor=#000000;strokeWidth=2;" parent="WIyWlLk6GJQsqaUBKTNV-1" source="-azY2W3yGZLZTdUkkEGY-133" target="-azY2W3yGZLZTdUkkEGY-167" edge="1">
          <mxGeometry width="160" relative="1" as="geometry">
            <mxPoint x="347.29" y="1874.5" as="sourcePoint" />
            <mxPoint x="848.29" y="1835.5" as="targetPoint" />
            <Array as="points">
              <mxPoint x="270" y="1760" />
              <mxPoint x="603" y="1780" />
              <mxPoint x="990" y="1780" />
            </Array>
          </mxGeometry>
        </mxCell>
        <mxCell id="QETnrpiUQnyJiMyGGkn6-0" value="" style="whiteSpace=wrap;html=1;aspect=fixed;" parent="WIyWlLk6GJQsqaUBKTNV-1" vertex="1">
          <mxGeometry x="290" y="2850" width="730" height="730" as="geometry" />
        </mxCell>
        <mxCell id="QETnrpiUQnyJiMyGGkn6-19" value="Users" style="swimlane;childLayout=stackLayout;horizontal=1;startSize=50;horizontalStack=0;rounded=1;fontSize=14;fontStyle=0;strokeWidth=2;resizeParent=0;resizeLast=1;shadow=0;dashed=0;align=center;arcSize=4;whiteSpace=wrap;html=1;fillColor=#f5f5f5;fontColor=#333333;strokeColor=#666666;" parent="WIyWlLk6GJQsqaUBKTNV-1" vertex="1">
          <mxGeometry x="547.75" y="3754.5" width="160" height="301" as="geometry">
            <mxRectangle x="547.75" y="3754.5" width="80" height="50" as="alternateBounds" />
          </mxGeometry>
        </mxCell>
        <mxCell id="QETnrpiUQnyJiMyGGkn6-20" value="#IdUtilisateur&lt;div&gt;#nom&lt;/div&gt;&lt;div&gt;#prenom&lt;/div&gt;&lt;div&gt;#DateNaiss&lt;/div&gt;&lt;div&gt;#email&lt;/div&gt;&lt;div&gt;#telephone&lt;/div&gt;&lt;div&gt;#MotDePasse&lt;/div&gt;&lt;div&gt;#Adresse&lt;/div&gt;&lt;div&gt;#Image&lt;/div&gt;&lt;div&gt;#sexe&lt;/div&gt;&lt;div&gt;#Status&lt;/div&gt;&lt;div&gt;#date&lt;/div&gt;&lt;div&gt;#DateModify&lt;/div&gt;&lt;div&gt;&lt;br&gt;&lt;/div&gt;&lt;div&gt;authentifier()&lt;/div&gt;&lt;div&gt;GestionRendezVous()&lt;/div&gt;" style="align=left;strokeColor=none;fillColor=none;spacingLeft=4;fontSize=12;verticalAlign=top;resizable=0;rotatable=0;part=1;html=1;" parent="QETnrpiUQnyJiMyGGkn6-19" vertex="1">
          <mxGeometry y="50" width="160" height="251" as="geometry" />
        </mxCell>
        <mxCell id="QETnrpiUQnyJiMyGGkn6-21" value="" style="endArrow=none;html=1;rounded=0;" parent="QETnrpiUQnyJiMyGGkn6-19" edge="1">
          <mxGeometry relative="1" as="geometry">
            <mxPoint x="1.5" y="251" as="sourcePoint" />
            <mxPoint x="161.5" y="251" as="targetPoint" />
          </mxGeometry>
        </mxCell>
        <mxCell id="QETnrpiUQnyJiMyGGkn6-28" value="Secrétaire&amp;nbsp;" style="swimlane;fontStyle=0;childLayout=stackLayout;horizontal=1;startSize=26;horizontalStack=0;resizeParent=1;resizeParentMax=0;resizeLast=0;collapsible=1;marginBottom=0;whiteSpace=wrap;html=1;" parent="WIyWlLk6GJQsqaUBKTNV-1" vertex="1">
          <mxGeometry x="880" y="3800" width="200" height="130" as="geometry" />
        </mxCell>
        <mxCell id="QETnrpiUQnyJiMyGGkn6-30" value="&lt;p style=&quot;margin: 0px 0px 0px 4px;&quot;&gt;&amp;nbsp;GestionRendezVous()&lt;/p&gt;&lt;p style=&quot;margin: 0px 0px 0px 4px;&quot;&gt;&amp;nbsp;GestionPlanning()&lt;/p&gt;&lt;p style=&quot;margin: 0px 0px 0px 4px;&quot;&gt;&amp;nbsp;ConsulterRendezVous()&lt;/p&gt;&lt;p style=&quot;margin: 0px 0px 0px 4px;&quot;&gt;&amp;nbsp;ValiderRendezVous()&lt;/p&gt;&lt;p style=&quot;margin: 0px 0px 0px 4px;&quot;&gt;&amp;nbsp;ConsulterRendezVous()&lt;/p&gt;" style="text;strokeColor=none;fillColor=none;align=left;verticalAlign=top;spacingLeft=4;spacingRight=4;overflow=hidden;rotatable=0;points=[[0,0.5],[1,0.5]];portConstraint=eastwest;whiteSpace=wrap;html=1;" parent="QETnrpiUQnyJiMyGGkn6-28" vertex="1">
          <mxGeometry y="26" width="200" height="104" as="geometry" />
        </mxCell>
        <mxCell id="QETnrpiUQnyJiMyGGkn6-32" style="edgeStyle=orthogonalEdgeStyle;rounded=0;orthogonalLoop=1;jettySize=auto;html=1;" parent="WIyWlLk6GJQsqaUBKTNV-1" source="QETnrpiUQnyJiMyGGkn6-30" target="QETnrpiUQnyJiMyGGkn6-20" edge="1">
          <mxGeometry relative="1" as="geometry" />
        </mxCell>
        <mxCell id="QETnrpiUQnyJiMyGGkn6-33" value="Medecin" style="swimlane;fontStyle=0;childLayout=stackLayout;horizontal=1;startSize=26;fillColor=none;horizontalStack=0;resizeParent=1;resizeParentMax=0;resizeLast=0;collapsible=1;marginBottom=0;whiteSpace=wrap;html=1;" parent="WIyWlLk6GJQsqaUBKTNV-1" vertex="1">
          <mxGeometry x="402.29" y="4200" width="200" height="80" as="geometry" />
        </mxCell>
        <mxCell id="QETnrpiUQnyJiMyGGkn6-34" value="&lt;p style=&quot;margin: 0px 0px 0px 4px;&quot;&gt;&amp;nbsp;GestionRendezVous()&lt;/p&gt;&lt;p style=&quot;margin: 0px 0px 0px 4px;&quot;&gt;&amp;nbsp;ConsulterPatients()&lt;/p&gt;" style="text;strokeColor=none;fillColor=none;align=left;verticalAlign=top;spacingLeft=4;spacingRight=4;overflow=hidden;rotatable=0;points=[[0,0.5],[1,0.5]];portConstraint=eastwest;whiteSpace=wrap;html=1;" parent="QETnrpiUQnyJiMyGGkn6-33" vertex="1">
          <mxGeometry y="26" width="200" height="54" as="geometry" />
        </mxCell>
        <mxCell id="QETnrpiUQnyJiMyGGkn6-35" value="&lt;p style=&quot;margin:0px;margin-top:4px;text-align:center;&quot;&gt;&lt;b&gt;service&lt;/b&gt;&lt;/p&gt;&lt;hr size=&quot;1&quot; style=&quot;border-style:solid;&quot;&gt;&lt;p style=&quot;margin:0px;margin-left:4px;&quot;&gt;- idService&lt;/p&gt;&lt;p style=&quot;margin:0px;margin-left:4px;&quot;&gt;- nomSevice&lt;/p&gt;&lt;p style=&quot;margin:0px;margin-left:4px;&quot;&gt;&lt;br&gt;&lt;/p&gt;" style="verticalAlign=top;align=left;overflow=fill;html=1;whiteSpace=wrap;" parent="WIyWlLk6GJQsqaUBKTNV-1" vertex="1">
          <mxGeometry x="330" y="3840" width="160" height="130" as="geometry" />
        </mxCell>
        <mxCell id="QETnrpiUQnyJiMyGGkn6-36" value="" style="endArrow=none;html=1;rounded=0;" parent="WIyWlLk6GJQsqaUBKTNV-1" edge="1">
          <mxGeometry relative="1" as="geometry">
            <mxPoint x="330" y="3930" as="sourcePoint" />
            <mxPoint x="490" y="3930" as="targetPoint" />
          </mxGeometry>
        </mxCell>
        <mxCell id="QETnrpiUQnyJiMyGGkn6-37" value="&lt;p style=&quot;margin:0px;margin-top:4px;text-align:center;&quot;&gt;&lt;b&gt;Rendez-vous&amp;nbsp;&lt;/b&gt;&lt;/p&gt;&lt;hr size=&quot;1&quot; style=&quot;border-style:solid;&quot;&gt;&lt;p style=&quot;margin:0px;margin-left:4px;&quot;&gt;- ID&lt;/p&gt;&lt;p style=&quot;margin:0px;margin-left:4px;&quot;&gt;- NumeroRv&lt;/p&gt;&lt;p style=&quot;margin:0px;margin-left:4px;&quot;&gt;- description&lt;/p&gt;&lt;p style=&quot;margin:0px;margin-left:4px;&quot;&gt;- Motif&lt;/p&gt;&lt;p style=&quot;margin:0px;margin-left:4px;&quot;&gt;- Date&lt;/p&gt;&lt;p style=&quot;margin:0px;margin-left:4px;&quot;&gt;- diagnostic&lt;/p&gt;&lt;p style=&quot;margin:0px;margin-left:4px;&quot;&gt;- traitement&lt;/p&gt;&lt;p style=&quot;margin:0px;margin-left:4px;&quot;&gt;- heure&lt;/p&gt;&lt;p style=&quot;margin:0px;margin-left:4px;&quot;&gt;&lt;br&gt;&lt;/p&gt;&lt;p style=&quot;margin:0px;margin-left:4px;&quot;&gt;&lt;br&gt;&lt;/p&gt;&lt;p style=&quot;margin:0px;margin-left:4px;&quot;&gt;&lt;br&gt;&lt;/p&gt;&lt;p style=&quot;margin:0px;margin-left:4px;&quot;&gt;&lt;br&gt;&lt;/p&gt;" style="verticalAlign=top;align=left;overflow=fill;html=1;whiteSpace=wrap;" parent="WIyWlLk6GJQsqaUBKTNV-1" vertex="1">
          <mxGeometry x="970" y="3960" width="160" height="200" as="geometry" />
        </mxCell>
        <mxCell id="QETnrpiUQnyJiMyGGkn6-38" value="" style="endArrow=none;html=1;rounded=0;" parent="WIyWlLk6GJQsqaUBKTNV-1" edge="1">
          <mxGeometry relative="1" as="geometry">
            <mxPoint x="969" y="4124.23" as="sourcePoint" />
            <mxPoint x="1129" y="4124.23" as="targetPoint" />
            <Array as="points" />
          </mxGeometry>
        </mxCell>
        <mxCell id="QETnrpiUQnyJiMyGGkn6-39" value="&lt;p style=&quot;margin:0px;margin-top:4px;text-align:center;&quot;&gt;&lt;b&gt;Creneau&amp;nbsp;&lt;/b&gt;&lt;/p&gt;&lt;hr size=&quot;1&quot; style=&quot;border-style:solid;&quot;&gt;&lt;p style=&quot;margin:0px;margin-left:4px;&quot;&gt;- ID&lt;/p&gt;&lt;p style=&quot;margin:0px;margin-left:4px;&quot;&gt;- CodeCreneau&lt;/p&gt;&lt;p style=&quot;margin:0px;margin-left:4px;&quot;&gt;- Heure&lt;/p&gt;&lt;p style=&quot;margin:0px;margin-left:4px;&quot;&gt;&lt;br&gt;&lt;/p&gt;&lt;p style=&quot;margin:0px;margin-left:4px;&quot;&gt;&lt;br&gt;&lt;/p&gt;&lt;p style=&quot;margin:0px;margin-left:4px;&quot;&gt;&lt;br&gt;&lt;/p&gt;&lt;p style=&quot;margin:0px;margin-left:4px;&quot;&gt;&lt;br&gt;&lt;/p&gt;" style="verticalAlign=top;align=left;overflow=fill;html=1;whiteSpace=wrap;" parent="WIyWlLk6GJQsqaUBKTNV-1" vertex="1">
          <mxGeometry x="890" y="4260" width="160" height="130" as="geometry" />
        </mxCell>
        <mxCell id="QETnrpiUQnyJiMyGGkn6-40" value="" style="endArrow=none;html=1;rounded=0;entryX=1.033;entryY=0.687;entryDx=0;entryDy=0;entryPerimeter=0;exitX=0.02;exitY=0.692;exitDx=0;exitDy=0;exitPerimeter=0;" parent="WIyWlLk6GJQsqaUBKTNV-1" edge="1">
          <mxGeometry relative="1" as="geometry">
            <mxPoint x="890.0000000000003" y="4360.65" as="sourcePoint" />
            <mxPoint x="1052.0800000000002" y="4360" as="targetPoint" />
            <Array as="points" />
          </mxGeometry>
        </mxCell>
        <mxCell id="QETnrpiUQnyJiMyGGkn6-44" style="edgeStyle=orthogonalEdgeStyle;rounded=0;orthogonalLoop=1;jettySize=auto;html=1;" parent="WIyWlLk6GJQsqaUBKTNV-1" source="QETnrpiUQnyJiMyGGkn6-41" target="QETnrpiUQnyJiMyGGkn6-20" edge="1">
          <mxGeometry relative="1" as="geometry" />
        </mxCell>
        <mxCell id="QETnrpiUQnyJiMyGGkn6-41" value="&lt;p style=&quot;margin:0px;margin-top:4px;text-align:center;&quot;&gt;&lt;b&gt;Patient&lt;/b&gt;&lt;/p&gt;&lt;hr size=&quot;1&quot; style=&quot;border-style:solid;&quot;&gt;&lt;p style=&quot;margin:0px;margin-left:4px;&quot;&gt;- CodePatient&lt;/p&gt;&lt;p style=&quot;margin:0px;margin-left:4px;&quot;&gt;- Diagnostic&lt;/p&gt;&lt;p style=&quot;margin:0px;margin-left:4px;&quot;&gt;- Traitement&lt;/p&gt;&lt;p style=&quot;margin:0px;margin-left:4px;&quot;&gt;- description&lt;/p&gt;&lt;p style=&quot;margin:0px;margin-left:4px;&quot;&gt;&lt;br&gt;&lt;/p&gt;&lt;p style=&quot;margin:0px;margin-left:4px;&quot;&gt;&lt;br&gt;&lt;/p&gt;&lt;p style=&quot;margin:0px;margin-left:4px;&quot;&gt;RecvoirAppel()&amp;nbsp;&lt;/p&gt;&lt;p style=&quot;margin:0px;margin-left:4px;&quot;&gt;&lt;br&gt;&lt;/p&gt;&lt;p style=&quot;margin:0px;margin-left:4px;&quot;&gt;&lt;br&gt;&lt;/p&gt;&lt;p style=&quot;margin:0px;margin-left:4px;&quot;&gt;&lt;br&gt;&lt;/p&gt;&lt;p style=&quot;margin:0px;margin-left:4px;&quot;&gt;&lt;br&gt;&lt;/p&gt;&lt;p style=&quot;margin:0px;margin-left:4px;&quot;&gt;&lt;br&gt;&lt;/p&gt;" style="verticalAlign=top;align=left;overflow=fill;html=1;whiteSpace=wrap;" parent="WIyWlLk6GJQsqaUBKTNV-1" vertex="1">
          <mxGeometry x="670" y="4210" width="160" height="140" as="geometry" />
        </mxCell>
        <mxCell id="QETnrpiUQnyJiMyGGkn6-45" style="edgeStyle=orthogonalEdgeStyle;rounded=0;orthogonalLoop=1;jettySize=auto;html=1;entryX=0.139;entryY=0.996;entryDx=0;entryDy=0;entryPerimeter=0;" parent="WIyWlLk6GJQsqaUBKTNV-1" source="QETnrpiUQnyJiMyGGkn6-33" target="QETnrpiUQnyJiMyGGkn6-20" edge="1">
          <mxGeometry relative="1" as="geometry" />
        </mxCell>
        <mxCell id="QETnrpiUQnyJiMyGGkn6-46" value="&lt;p style=&quot;margin:0px;margin-top:4px;text-align:center;&quot;&gt;&lt;b&gt;Administrateur&amp;nbsp;&lt;/b&gt;&lt;/p&gt;&lt;hr size=&quot;1&quot; style=&quot;border-style:solid;&quot;&gt;&lt;p style=&quot;margin:0px;margin-left:4px;&quot;&gt;&amp;nbsp;GestionUtilisateur()&lt;/p&gt;&lt;p style=&quot;margin:0px;margin-left:4px;&quot;&gt;&lt;span style=&quot;background-color: initial;&quot;&gt;&amp;nbsp;GestionService()&amp;nbsp;&lt;/span&gt;&lt;/p&gt;&lt;p style=&quot;margin:0px;margin-left:4px;&quot;&gt;&lt;br&gt;&lt;/p&gt;&lt;p style=&quot;margin:0px;margin-left:4px;&quot;&gt;&lt;br&gt;&lt;/p&gt;&lt;p style=&quot;margin:0px;margin-left:4px;&quot;&gt;&lt;br&gt;&lt;/p&gt;&lt;p style=&quot;margin:0px;margin-left:4px;&quot;&gt;&lt;br&gt;&lt;/p&gt;&lt;p style=&quot;margin:0px;margin-left:4px;&quot;&gt;&lt;br&gt;&lt;/p&gt;" style="verticalAlign=top;align=left;overflow=fill;html=1;whiteSpace=wrap;" parent="WIyWlLk6GJQsqaUBKTNV-1" vertex="1">
          <mxGeometry x="770" y="4012" width="160" height="80" as="geometry" />
        </mxCell>
        <mxCell id="QETnrpiUQnyJiMyGGkn6-47" style="edgeStyle=orthogonalEdgeStyle;rounded=0;orthogonalLoop=1;jettySize=auto;html=1;entryX=1;entryY=0.844;entryDx=0;entryDy=0;entryPerimeter=0;" parent="WIyWlLk6GJQsqaUBKTNV-1" source="QETnrpiUQnyJiMyGGkn6-46" target="QETnrpiUQnyJiMyGGkn6-20" edge="1">
          <mxGeometry relative="1" as="geometry" />
        </mxCell>
        <mxCell id="QETnrpiUQnyJiMyGGkn6-48" value="" style="endArrow=none;html=1;rounded=0;" parent="WIyWlLk6GJQsqaUBKTNV-1" edge="1">
          <mxGeometry relative="1" as="geometry">
            <mxPoint x="670" y="4310" as="sourcePoint" />
            <mxPoint x="830" y="4310" as="targetPoint" />
          </mxGeometry>
        </mxCell>
        <mxCell id="QETnrpiUQnyJiMyGGkn6-49" value="" style="endArrow=none;html=1;rounded=0;exitX=0.5;exitY=0;exitDx=0;exitDy=0;entryX=0.196;entryY=0.038;entryDx=0;entryDy=0;entryPerimeter=0;" parent="WIyWlLk6GJQsqaUBKTNV-1" source="QETnrpiUQnyJiMyGGkn6-35" target="QETnrpiUQnyJiMyGGkn6-28" edge="1">
          <mxGeometry relative="1" as="geometry">
            <mxPoint x="409.29" y="3850" as="sourcePoint" />
            <mxPoint x="918.6899999999996" y="3811.95" as="targetPoint" />
            <Array as="points">
              <mxPoint x="409.29" y="3730" />
              <mxPoint x="919.29" y="3730" />
            </Array>
          </mxGeometry>
        </mxCell>
        <mxCell id="QETnrpiUQnyJiMyGGkn6-51" value="" style="endArrow=none;html=1;rounded=0;exitX=0.563;exitY=1.004;exitDx=0;exitDy=0;entryX=0.098;entryY=0.001;entryDx=0;entryDy=0;entryPerimeter=0;exitPerimeter=0;" parent="WIyWlLk6GJQsqaUBKTNV-1" source="QETnrpiUQnyJiMyGGkn6-35" target="QETnrpiUQnyJiMyGGkn6-33" edge="1">
          <mxGeometry relative="1" as="geometry">
            <mxPoint x="370" y="4212" as="sourcePoint" />
            <mxPoint x="879" y="4174" as="targetPoint" />
            <Array as="points" />
          </mxGeometry>
        </mxCell>
        <mxCell id="QETnrpiUQnyJiMyGGkn6-52" value="" style="endArrow=none;html=1;rounded=0;entryX=0.48;entryY=1.115;entryDx=0;entryDy=0;entryPerimeter=0;exitX=0.928;exitY=1.016;exitDx=0;exitDy=0;exitPerimeter=0;" parent="WIyWlLk6GJQsqaUBKTNV-1" source="QETnrpiUQnyJiMyGGkn6-37" target="QETnrpiUQnyJiMyGGkn6-34" edge="1">
          <mxGeometry relative="1" as="geometry">
            <mxPoint x="420" y="3980" as="sourcePoint" />
            <mxPoint x="432" y="4210" as="targetPoint" />
            <Array as="points">
              <mxPoint x="1130" y="4460" />
              <mxPoint x="500" y="4470" />
            </Array>
          </mxGeometry>
        </mxCell>
        <mxCell id="QETnrpiUQnyJiMyGGkn6-53" value="" style="endArrow=none;html=1;rounded=0;exitX=0.029;exitY=0.616;exitDx=0;exitDy=0;exitPerimeter=0;" parent="WIyWlLk6GJQsqaUBKTNV-1" source="QETnrpiUQnyJiMyGGkn6-37" target="QETnrpiUQnyJiMyGGkn6-41" edge="1">
          <mxGeometry relative="1" as="geometry">
            <mxPoint x="661.23" y="4050" as="sourcePoint" />
            <mxPoint x="673.23" y="4280" as="targetPoint" />
            <Array as="points" />
          </mxGeometry>
        </mxCell>
        <mxCell id="QETnrpiUQnyJiMyGGkn6-54" value="" style="endArrow=none;html=1;rounded=0;exitX=0.25;exitY=1;exitDx=0;exitDy=0;entryX=0.25;entryY=0;entryDx=0;entryDy=0;" parent="WIyWlLk6GJQsqaUBKTNV-1" source="QETnrpiUQnyJiMyGGkn6-37" target="QETnrpiUQnyJiMyGGkn6-39" edge="1">
          <mxGeometry relative="1" as="geometry">
            <mxPoint x="985" y="4093" as="sourcePoint" />
            <mxPoint x="840" y="4220" as="targetPoint" />
            <Array as="points" />
          </mxGeometry>
        </mxCell>
        <mxCell id="yJjiVAZASk3ynMtv89vW-2" value="include" style="endArrow=open;endSize=12;dashed=1;html=1;rounded=0;entryX=0.75;entryY=0.93;entryDx=0;entryDy=0;entryPerimeter=0;" parent="WIyWlLk6GJQsqaUBKTNV-1" source="yJjiVAZASk3ynMtv89vW-3" target="-azY2W3yGZLZTdUkkEGY-133" edge="1">
          <mxGeometry width="160" relative="1" as="geometry">
            <mxPoint x="794" y="1934" as="sourcePoint" />
            <mxPoint x="441" y="2076" as="targetPoint" />
            <Array as="points" />
          </mxGeometry>
        </mxCell>
        <mxCell id="yJjiVAZASk3ynMtv89vW-3" value="Lister Utilisateurs&amp;nbsp;" style="ellipse;whiteSpace=wrap;html=1;fillColor=#ffe6cc;strokeColor=#d79b00;" parent="WIyWlLk6GJQsqaUBKTNV-1" vertex="1">
          <mxGeometry x="521" y="1945" width="154.5" height="70" as="geometry" />
        </mxCell>
        <mxCell id="yJjiVAZASk3ynMtv89vW-4" value="ADMINISTRATEUR&amp;nbsp;" style="shape=umlActor;verticalLabelPosition=bottom;verticalAlign=top;html=1;outlineConnect=0;fillColor=#ffe6cc;strokeColor=#d79b00;" parent="WIyWlLk6GJQsqaUBKTNV-1" vertex="1">
          <mxGeometry x="130" y="3350" width="70" height="120" as="geometry" />
        </mxCell>
        <mxCell id="yJjiVAZASk3ynMtv89vW-5" value="SECRETAIRE&amp;nbsp;" style="shape=umlActor;verticalLabelPosition=bottom;verticalAlign=top;html=1;outlineConnect=0;fillColor=#ffe6cc;strokeColor=#d79b00;" parent="WIyWlLk6GJQsqaUBKTNV-1" vertex="1">
          <mxGeometry x="140" y="2970" width="70" height="120" as="geometry" />
        </mxCell>
        <mxCell id="yJjiVAZASk3ynMtv89vW-6" value="MEDECIN" style="shape=umlActor;verticalLabelPosition=bottom;verticalAlign=top;html=1;outlineConnect=0;fillColor=#ffe6cc;strokeColor=#d79b00;" parent="WIyWlLk6GJQsqaUBKTNV-1" vertex="1">
          <mxGeometry x="140" y="3150" width="70" height="120" as="geometry" />
        </mxCell>
        <mxCell id="yJjiVAZASk3ynMtv89vW-14" value="Gerer rendez-vous&amp;nbsp;" style="ellipse;whiteSpace=wrap;html=1;strokeWidth=1;fillColor=#ffe6cc;strokeColor=#d79b00;" parent="WIyWlLk6GJQsqaUBKTNV-1" vertex="1">
          <mxGeometry x="370" y="2923" width="200" height="107" as="geometry" />
        </mxCell>
        <mxCell id="yJjiVAZASk3ynMtv89vW-15" value="Consulter Patient&amp;nbsp;" style="ellipse;whiteSpace=wrap;html=1;strokeWidth=1;fillColor=#ffe6cc;strokeColor=#d79b00;" parent="WIyWlLk6GJQsqaUBKTNV-1" vertex="1">
          <mxGeometry x="390.53" y="3110" width="210" height="107" as="geometry" />
        </mxCell>
        <mxCell id="yJjiVAZASk3ynMtv89vW-16" value="" style="endArrow=none;html=1;rounded=0;entryX=0;entryY=0.5;entryDx=0;entryDy=0;exitX=1;exitY=0.3333333333333333;exitDx=0;exitDy=0;exitPerimeter=0;" parent="WIyWlLk6GJQsqaUBKTNV-1" source="yJjiVAZASk3ynMtv89vW-5" target="yJjiVAZASk3ynMtv89vW-14" edge="1">
          <mxGeometry width="50" height="50" relative="1" as="geometry">
            <mxPoint x="290" y="3070" as="sourcePoint" />
            <mxPoint x="340" y="3020" as="targetPoint" />
          </mxGeometry>
        </mxCell>
        <mxCell id="yJjiVAZASk3ynMtv89vW-17" value="" style="endArrow=none;html=1;rounded=0;entryX=0;entryY=0.5;entryDx=0;entryDy=0;exitX=1;exitY=0.3333333333333333;exitDx=0;exitDy=0;exitPerimeter=0;" parent="WIyWlLk6GJQsqaUBKTNV-1" source="yJjiVAZASk3ynMtv89vW-6" target="yJjiVAZASk3ynMtv89vW-15" edge="1">
          <mxGeometry width="50" height="50" relative="1" as="geometry">
            <mxPoint x="210" y="3242" as="sourcePoint" />
            <mxPoint x="386" y="3230" as="targetPoint" />
          </mxGeometry>
        </mxCell>
        <mxCell id="yJjiVAZASk3ynMtv89vW-18" value="Gestion des utilisateurs&amp;nbsp;" style="ellipse;whiteSpace=wrap;html=1;strokeWidth=1;fillColor=#ffe6cc;strokeColor=#d79b00;" parent="WIyWlLk6GJQsqaUBKTNV-1" vertex="1">
          <mxGeometry x="396.02000000000004" y="3310" width="210" height="107" as="geometry" />
        </mxCell>
        <mxCell id="yJjiVAZASk3ynMtv89vW-19" value="" style="endArrow=none;html=1;rounded=0;entryX=0;entryY=0.5;entryDx=0;entryDy=0;exitX=1;exitY=0.3333333333333333;exitDx=0;exitDy=0;exitPerimeter=0;" parent="WIyWlLk6GJQsqaUBKTNV-1" source="yJjiVAZASk3ynMtv89vW-4" target="yJjiVAZASk3ynMtv89vW-18" edge="1">
          <mxGeometry width="50" height="50" relative="1" as="geometry">
            <mxPoint x="210" y="3470" as="sourcePoint" />
            <mxPoint x="386" y="3517" as="targetPoint" />
          </mxGeometry>
        </mxCell>
        <mxCell id="yJjiVAZASk3ynMtv89vW-20" value="Gestion des services" style="ellipse;whiteSpace=wrap;html=1;strokeWidth=1;fillColor=#ffe6cc;strokeColor=#d79b00;" parent="WIyWlLk6GJQsqaUBKTNV-1" vertex="1">
          <mxGeometry x="384.5" y="3460" width="210" height="107" as="geometry" />
        </mxCell>
        <mxCell id="yJjiVAZASk3ynMtv89vW-21" value="" style="endArrow=none;html=1;rounded=0;entryX=0;entryY=0.5;entryDx=0;entryDy=0;exitX=1;exitY=1;exitDx=0;exitDy=0;exitPerimeter=0;" parent="WIyWlLk6GJQsqaUBKTNV-1" source="yJjiVAZASk3ynMtv89vW-4" target="yJjiVAZASk3ynMtv89vW-20" edge="1">
          <mxGeometry width="50" height="50" relative="1" as="geometry">
            <mxPoint x="210" y="3400" as="sourcePoint" />
            <mxPoint x="406" y="3374" as="targetPoint" />
          </mxGeometry>
        </mxCell>
        <mxCell id="yJjiVAZASk3ynMtv89vW-22" value="S&#39;authentifier" style="ellipse;whiteSpace=wrap;html=1;strokeWidth=1;fillColor=#ffe6cc;strokeColor=#d79b00;" parent="WIyWlLk6GJQsqaUBKTNV-1" vertex="1">
          <mxGeometry x="780" y="3203" width="210" height="107" as="geometry" />
        </mxCell>
        <mxCell id="yJjiVAZASk3ynMtv89vW-24" value="include" style="endArrow=open;endSize=12;dashed=1;html=1;rounded=0;entryX=0.433;entryY=0.049;entryDx=0;entryDy=0;entryPerimeter=0;exitX=0.97;exitY=0.701;exitDx=0;exitDy=0;exitPerimeter=0;fillColor=#ffe6cc;strokeColor=#000000;strokeWidth=2;" parent="WIyWlLk6GJQsqaUBKTNV-1" source="yJjiVAZASk3ynMtv89vW-14" target="yJjiVAZASk3ynMtv89vW-22" edge="1">
          <mxGeometry width="160" relative="1" as="geometry">
            <mxPoint x="893" y="3030" as="sourcePoint" />
            <mxPoint x="619" y="3013" as="targetPoint" />
            <Array as="points" />
          </mxGeometry>
        </mxCell>
        <mxCell id="yJjiVAZASk3ynMtv89vW-25" value="&#xa;&lt;span style=&quot;color: rgb(0, 0, 0); font-family: Helvetica; font-size: 11px; font-style: normal; font-variant-ligatures: normal; font-variant-caps: normal; font-weight: 400; letter-spacing: normal; orphans: 2; text-align: center; text-indent: 0px; text-transform: none; widows: 2; word-spacing: 0px; -webkit-text-stroke-width: 0px; white-space: nowrap; background-color: rgb(255, 255, 255); text-decoration-thickness: initial; text-decoration-style: initial; text-decoration-color: initial; display: inline !important; float: none;&quot;&gt;include&lt;/span&gt;&#xa;&#xa;" style="endArrow=open;endSize=12;dashed=1;html=1;rounded=0;entryX=0.027;entryY=0.605;entryDx=0;entryDy=0;entryPerimeter=0;exitX=0.924;exitY=0.769;exitDx=0;exitDy=0;exitPerimeter=0;strokeWidth=2;fillColor=#ffe6cc;strokeColor=#000000;" parent="WIyWlLk6GJQsqaUBKTNV-1" source="yJjiVAZASk3ynMtv89vW-15" target="yJjiVAZASk3ynMtv89vW-22" edge="1">
          <mxGeometry width="160" relative="1" as="geometry">
            <mxPoint x="429.28999999999996" y="3050" as="sourcePoint" />
            <mxPoint x="712.29" y="3260" as="targetPoint" />
            <Array as="points" />
          </mxGeometry>
        </mxCell>
        <mxCell id="yJjiVAZASk3ynMtv89vW-26" value="&#xa;&lt;span style=&quot;color: rgb(0, 0, 0); font-family: Helvetica; font-size: 11px; font-style: normal; font-variant-ligatures: normal; font-variant-caps: normal; font-weight: 400; letter-spacing: normal; orphans: 2; text-align: center; text-indent: 0px; text-transform: none; widows: 2; word-spacing: 0px; -webkit-text-stroke-width: 0px; white-space: nowrap; background-color: rgb(255, 255, 255); text-decoration-thickness: initial; text-decoration-style: initial; text-decoration-color: initial; display: inline !important; float: none;&quot;&gt;include&lt;/span&gt;&#xa;&#xa;" style="endArrow=open;endSize=12;dashed=1;html=1;rounded=0;entryX=0.283;entryY=0.968;entryDx=0;entryDy=0;entryPerimeter=0;exitX=1;exitY=0.5;exitDx=0;exitDy=0;fillColor=#ffe6cc;strokeColor=#000000;strokeWidth=2;" parent="WIyWlLk6GJQsqaUBKTNV-1" source="yJjiVAZASk3ynMtv89vW-18" target="yJjiVAZASk3ynMtv89vW-22" edge="1">
          <mxGeometry width="160" relative="1" as="geometry">
            <mxPoint x="579" y="3330" as="sourcePoint" />
            <mxPoint x="780" y="3406" as="targetPoint" />
            <Array as="points" />
          </mxGeometry>
        </mxCell>
        <mxCell id="yJjiVAZASk3ynMtv89vW-27" value="&#xa;&lt;span style=&quot;color: rgb(0, 0, 0); font-family: Helvetica; font-size: 11px; font-style: normal; font-variant-ligatures: normal; font-variant-caps: normal; font-weight: 400; letter-spacing: normal; orphans: 2; text-align: center; text-indent: 0px; text-transform: none; widows: 2; word-spacing: 0px; -webkit-text-stroke-width: 0px; white-space: nowrap; background-color: rgb(255, 255, 255); text-decoration-thickness: initial; text-decoration-style: initial; text-decoration-color: initial; display: inline !important; float: none;&quot;&gt;include&lt;/span&gt;&#xa;&#xa;" style="endArrow=open;endSize=12;dashed=1;html=1;rounded=0;entryX=0.718;entryY=0.968;entryDx=0;entryDy=0;entryPerimeter=0;exitX=0.969;exitY=0.275;exitDx=0;exitDy=0;exitPerimeter=0;strokeWidth=2;fillColor=#ffe6cc;strokeColor=#000000;" parent="WIyWlLk6GJQsqaUBKTNV-1" source="yJjiVAZASk3ynMtv89vW-20" target="yJjiVAZASk3ynMtv89vW-22" edge="1">
          <mxGeometry width="160" relative="1" as="geometry">
            <mxPoint x="599.79" y="3475.5" as="sourcePoint" />
            <mxPoint x="800.79" y="3551.5" as="targetPoint" />
            <Array as="points" />
          </mxGeometry>
        </mxCell>
        <mxCell id="yJjiVAZASk3ynMtv89vW-28" value="Plateforme gestion des rendez-vous médicale&amp;nbsp;" style="rounded=0;whiteSpace=wrap;html=1;" parent="WIyWlLk6GJQsqaUBKTNV-1" vertex="1">
          <mxGeometry x="480" y="2850" width="380" height="30" as="geometry" />
        </mxCell>
      </root>
    </mxGraphModel>
  </diagram>
</mxfile>
